<mxfile host="65bd71144e">
    <diagram id="7ClO2gzEByUyAXzy6tJs" name="Page-1">
        <mxGraphModel dx="2996" dy="1331" grid="1" gridSize="10" guides="1" tooltips="1" connect="1" arrows="1" fold="1" page="1" pageScale="1" pageWidth="827" pageHeight="1169" math="0" shadow="0">
            <root>
                <mxCell id="0"/>
                <mxCell id="1" parent="0"/>
                <mxCell id="19" value="" style="whiteSpace=wrap;html=1;verticalAlign=top;fillColor=#FAFAFA;strokeColor=#005073;sketch=0;" parent="1" vertex="1">
                    <mxGeometry x="-200" y="-380" width="1630" height="890" as="geometry"/>
                </mxCell>
                <mxCell id="66" value="" style="rounded=0;whiteSpace=wrap;html=1;strokeColor=#1F1F1F;fontColor=#000000;fillColor=#CCCCCC;" parent="1" vertex="1">
                    <mxGeometry x="-190" y="265" width="200" height="235" as="geometry"/>
                </mxCell>
                <mxCell id="34" style="edgeStyle=none;html=1;entryX=0;entryY=0.958;entryDx=0;entryDy=0;strokeColor=#0A0A0A;exitX=0.145;exitY=0.855;exitDx=0;exitDy=0;exitPerimeter=0;entryPerimeter=0;" parent="1" source="11" target="28" edge="1">
                    <mxGeometry relative="1" as="geometry">
                        <Array as="points">
                            <mxPoint x="52" y="350"/>
                        </Array>
                    </mxGeometry>
                </mxCell>
                <mxCell id="76" style="edgeStyle=none;html=1;exitX=0.5;exitY=0;exitDx=0;exitDy=0;exitPerimeter=0;entryX=0;entryY=0.25;entryDx=0;entryDy=0;" parent="1" source="11" target="71" edge="1">
                    <mxGeometry relative="1" as="geometry">
                        <Array as="points">
                            <mxPoint x="80" y="-270"/>
                        </Array>
                    </mxGeometry>
                </mxCell>
                <mxCell id="11" value="" style="sketch=0;points=[[0.5,0,0],[1,0.5,0],[0.5,1,0],[0,0.5,0],[0.145,0.145,0],[0.8555,0.145,0],[0.855,0.8555,0],[0.145,0.855,0]];verticalLabelPosition=bottom;html=1;verticalAlign=top;aspect=fixed;align=center;pointerEvents=1;shape=mxgraph.cisco19.rect;prIcon=router;fillColor=#FAFAFA;strokeColor=#005073;" parent="1" vertex="1">
                    <mxGeometry x="40" y="-180" width="80" height="80" as="geometry"/>
                </mxCell>
                <mxCell id="38" style="edgeStyle=none;html=1;entryX=0;entryY=0.25;entryDx=0;entryDy=0;strokeColor=#0A0A0A;exitX=0.145;exitY=0.855;exitDx=0;exitDy=0;exitPerimeter=0;" parent="1" source="22" target="28" edge="1">
                    <mxGeometry relative="1" as="geometry">
                        <Array as="points">
                            <mxPoint x="172" y="265"/>
                        </Array>
                    </mxGeometry>
                </mxCell>
                <mxCell id="82" style="edgeStyle=none;html=1;exitX=0.8555;exitY=0.145;exitDx=0;exitDy=0;exitPerimeter=0;entryX=0;entryY=1;entryDx=0;entryDy=0;" parent="1" source="22" target="71" edge="1">
                    <mxGeometry relative="1" as="geometry">
                        <Array as="points">
                            <mxPoint x="240" y="-180"/>
                        </Array>
                    </mxGeometry>
                </mxCell>
                <mxCell id="22" value="" style="sketch=0;points=[[0.5,0,0],[1,0.5,0],[0.5,1,0],[0,0.5,0],[0.145,0.145,0],[0.8555,0.145,0],[0.855,0.8555,0],[0.145,0.855,0]];verticalLabelPosition=bottom;html=1;verticalAlign=top;aspect=fixed;align=center;pointerEvents=1;shape=mxgraph.cisco19.rect;prIcon=router;fillColor=#FAFAFA;strokeColor=#005073;" parent="1" vertex="1">
                    <mxGeometry x="160" y="-180" width="80" height="80" as="geometry"/>
                </mxCell>
                <mxCell id="32" style="edgeStyle=none;html=1;exitX=1;exitY=0.25;exitDx=0;exitDy=0;entryX=0;entryY=0.25;entryDx=0;entryDy=0;strokeColor=#CC6600;" parent="1" source="28" target="30" edge="1">
                    <mxGeometry relative="1" as="geometry"/>
                </mxCell>
                <mxCell id="36" style="edgeStyle=none;html=1;exitX=0.006;exitY=0.67;exitDx=0;exitDy=0;entryX=0.855;entryY=0.8555;entryDx=0;entryDy=0;entryPerimeter=0;strokeColor=#6666FF;exitPerimeter=0;" parent="1" source="28" target="11" edge="1">
                    <mxGeometry relative="1" as="geometry">
                        <Array as="points">
                            <mxPoint x="108" y="315"/>
                        </Array>
                    </mxGeometry>
                </mxCell>
                <mxCell id="37" style="edgeStyle=none;html=1;exitX=0;exitY=0;exitDx=0;exitDy=0;entryX=0.855;entryY=0.8555;entryDx=0;entryDy=0;entryPerimeter=0;strokeColor=#6666FF;" parent="1" source="28" target="22" edge="1">
                    <mxGeometry relative="1" as="geometry">
                        <Array as="points">
                            <mxPoint x="228" y="235"/>
                        </Array>
                    </mxGeometry>
                </mxCell>
                <mxCell id="28" value="Langchain&lt;div&gt;(AI framework)&lt;/div&gt;" style="whiteSpace=wrap;html=1;aspect=fixed;strokeColor=#1F1F1F;fillColor=#FFFFFF;" parent="1" vertex="1">
                    <mxGeometry x="707" y="235" width="120" height="120" as="geometry"/>
                </mxCell>
                <mxCell id="33" style="edgeStyle=none;html=1;exitX=0;exitY=0.75;exitDx=0;exitDy=0;entryX=1;entryY=0.75;entryDx=0;entryDy=0;strokeColor=#0A0A0A;" parent="1" source="30" target="28" edge="1">
                    <mxGeometry relative="1" as="geometry"/>
                </mxCell>
                <mxCell id="30" value="&lt;font color=&quot;#000000&quot;&gt;Ollama&lt;/font&gt;&lt;div&gt;&lt;font color=&quot;#000000&quot;&gt;(Host LLM)&lt;/font&gt;&lt;/div&gt;" style="whiteSpace=wrap;html=1;aspect=fixed;strokeColor=#1F1F1F;fillColor=#FFFFFF;" parent="1" vertex="1">
                    <mxGeometry x="970" y="235" width="120" height="120" as="geometry"/>
                </mxCell>
                <mxCell id="40" value="&lt;u&gt;&lt;b&gt;DIAGRAM LEGEND&lt;/b&gt;&lt;/u&gt;" style="text;html=1;strokeColor=none;fillColor=none;align=center;verticalAlign=middle;whiteSpace=wrap;rounded=0;fontColor=#050505;" parent="1" vertex="1">
                    <mxGeometry x="-200" y="280" width="190" height="30" as="geometry"/>
                </mxCell>
                <mxCell id="41" style="edgeStyle=none;html=1;strokeColor=#EB0505;" parent="1" edge="1">
                    <mxGeometry relative="1" as="geometry">
                        <mxPoint x="-180" y="320" as="sourcePoint"/>
                        <mxPoint x="-140" y="320" as="targetPoint"/>
                        <Array as="points">
                            <mxPoint x="-170" y="320"/>
                        </Array>
                    </mxGeometry>
                </mxCell>
                <mxCell id="42" style="edgeStyle=none;html=1;exitX=0.5;exitY=1;exitDx=0;exitDy=0;strokeColor=#63FFEF;" parent="1" edge="1">
                    <mxGeometry relative="1" as="geometry">
                        <mxPoint x="-180" y="360" as="sourcePoint"/>
                        <mxPoint x="-140" y="360" as="targetPoint"/>
                    </mxGeometry>
                </mxCell>
                <mxCell id="43" style="edgeStyle=none;html=1;exitX=1;exitY=0.25;exitDx=0;exitDy=0;strokeColor=#CC6600;" parent="1" edge="1">
                    <mxGeometry relative="1" as="geometry">
                        <mxPoint x="-180" y="400" as="sourcePoint"/>
                        <mxPoint x="-140" y="400" as="targetPoint"/>
                    </mxGeometry>
                </mxCell>
                <mxCell id="46" style="edgeStyle=none;html=1;strokeColor=#0A0A0A;" parent="1" edge="1">
                    <mxGeometry relative="1" as="geometry">
                        <mxPoint x="-180" y="480" as="sourcePoint"/>
                        <mxPoint x="-140" y="480" as="targetPoint"/>
                        <Array as="points">
                            <mxPoint x="-160" y="480"/>
                        </Array>
                    </mxGeometry>
                </mxCell>
                <mxCell id="47" value="Network Telemetry" style="text;html=1;strokeColor=none;fillColor=none;align=center;verticalAlign=middle;whiteSpace=wrap;rounded=0;fontColor=#050505;" parent="1" vertex="1">
                    <mxGeometry x="-153" y="304" width="150" height="30" as="geometry"/>
                </mxCell>
                <mxCell id="48" value="Triggered Alert" style="text;html=1;strokeColor=none;fillColor=none;align=center;verticalAlign=middle;whiteSpace=wrap;rounded=0;fontColor=#050505;" parent="1" vertex="1">
                    <mxGeometry x="-144" y="346" width="110" height="30" as="geometry"/>
                </mxCell>
                <mxCell id="50" value="" style="shape=link;html=1;strokeColor=#000000;fontColor=#050505;entryX=0;entryY=0.5;entryDx=0;entryDy=0;entryPerimeter=0;fillColor=#000000;" parent="1" target="22" edge="1">
                    <mxGeometry width="100" relative="1" as="geometry">
                        <mxPoint x="120" y="-140.5" as="sourcePoint"/>
                        <mxPoint x="160" y="-140" as="targetPoint"/>
                    </mxGeometry>
                </mxCell>
                <mxCell id="53" value="Link" style="text;html=1;strokeColor=none;fillColor=none;align=center;verticalAlign=middle;whiteSpace=wrap;rounded=0;fontColor=#050505;" parent="1" vertex="1">
                    <mxGeometry x="110" y="-167" width="60" height="30" as="geometry"/>
                </mxCell>
                <mxCell id="59" value="SEND COMMAND" style="text;html=1;strokeColor=none;fillColor=none;align=center;verticalAlign=middle;whiteSpace=wrap;rounded=0;fontColor=#050505;" parent="1" vertex="1">
                    <mxGeometry x="269" y="205" width="140" height="30" as="geometry"/>
                </mxCell>
                <mxCell id="60" value="COMMAND RESPONSE" style="text;html=1;strokeColor=none;fillColor=none;align=center;verticalAlign=middle;whiteSpace=wrap;rounded=0;fontColor=#050505;" parent="1" vertex="1">
                    <mxGeometry x="269" y="235" width="150" height="30" as="geometry"/>
                </mxCell>
                <mxCell id="61" value="SEND COMMAND" style="text;html=1;strokeColor=none;fillColor=none;align=center;verticalAlign=middle;whiteSpace=wrap;rounded=0;fontColor=#050505;" parent="1" vertex="1">
                    <mxGeometry x="274" y="290" width="140" height="30" as="geometry"/>
                </mxCell>
                <mxCell id="62" value="COMMAND RESPONSE" style="text;html=1;strokeColor=none;fillColor=none;align=center;verticalAlign=middle;whiteSpace=wrap;rounded=0;fontColor=#050505;" parent="1" vertex="1">
                    <mxGeometry x="274" y="320" width="160" height="30" as="geometry"/>
                </mxCell>
                <mxCell id="65" style="edgeStyle=none;html=1;strokeColor=#6666FF;" parent="1" edge="1">
                    <mxGeometry relative="1" as="geometry">
                        <mxPoint x="-180" y="440" as="sourcePoint"/>
                        <mxPoint x="-140" y="440" as="targetPoint"/>
                        <Array as="points">
                            <mxPoint x="-180" y="440"/>
                        </Array>
                    </mxGeometry>
                </mxCell>
                <mxCell id="67" value="POST Request" style="text;html=1;strokeColor=none;fillColor=none;align=center;verticalAlign=middle;whiteSpace=wrap;rounded=0;fontColor=#000000;" parent="1" vertex="1">
                    <mxGeometry x="-136" y="387" width="100" height="30" as="geometry"/>
                </mxCell>
                <mxCell id="68" value="Network Commands" style="text;html=1;strokeColor=none;fillColor=none;align=center;verticalAlign=middle;whiteSpace=wrap;rounded=0;fontColor=#000000;" parent="1" vertex="1">
                    <mxGeometry x="-132" y="426" width="115" height="30" as="geometry"/>
                </mxCell>
                <mxCell id="69" value="X RESPONSE" style="text;html=1;strokeColor=none;fillColor=none;align=center;verticalAlign=middle;whiteSpace=wrap;rounded=0;fontColor=#000000;" parent="1" vertex="1">
                    <mxGeometry x="-152" y="464" width="126" height="30" as="geometry"/>
                </mxCell>
                <mxCell id="78" style="edgeStyle=none;html=1;exitX=0;exitY=0.75;exitDx=0;exitDy=0;entryX=1;entryY=0;entryDx=0;entryDy=0;" parent="1" source="71" target="53" edge="1">
                    <mxGeometry relative="1" as="geometry">
                        <Array as="points">
                            <mxPoint x="170" y="-210"/>
                        </Array>
                    </mxGeometry>
                </mxCell>
                <mxCell id="84" style="edgeStyle=none;html=1;exitX=1;exitY=0.5;exitDx=0;exitDy=0;" parent="1" source="71" target="83" edge="1">
                    <mxGeometry relative="1" as="geometry"/>
                </mxCell>
                <mxCell id="71" value="&lt;div&gt;Container running Python script&lt;/div&gt;(Data Collector)" style="whiteSpace=wrap;html=1;aspect=fixed;strokeColor=#1F1F1F;fillColor=#FFFFFF;" parent="1" vertex="1">
                    <mxGeometry x="460" y="-300" width="120" height="120" as="geometry"/>
                </mxCell>
                <mxCell id="74" value="NETCONF - RPC" style="text;html=1;strokeColor=none;fillColor=none;align=center;verticalAlign=middle;whiteSpace=wrap;rounded=0;fontColor=#050505;" parent="1" vertex="1">
                    <mxGeometry x="50" y="-330" width="130" height="30" as="geometry"/>
                </mxCell>
                <mxCell id="75" style="edgeStyle=none;html=1;exitX=0;exitY=0;exitDx=0;exitDy=0;entryX=0.145;entryY=0.145;entryDx=0;entryDy=0;entryPerimeter=0;" parent="1" source="71" target="11" edge="1">
                    <mxGeometry relative="1" as="geometry">
                        <Array as="points">
                            <mxPoint x="50" y="-300"/>
                        </Array>
                    </mxGeometry>
                </mxCell>
                <mxCell id="77" value="NETCONF - RPC Reply" style="text;html=1;strokeColor=none;fillColor=none;align=center;verticalAlign=middle;whiteSpace=wrap;rounded=0;fontColor=#050505;" parent="1" vertex="1">
                    <mxGeometry x="83" y="-300" width="177" height="30" as="geometry"/>
                </mxCell>
                <mxCell id="80" value="NETCONF - RPC" style="text;html=1;strokeColor=none;fillColor=none;align=center;verticalAlign=middle;whiteSpace=wrap;rounded=0;fontColor=#050505;" parent="1" vertex="1">
                    <mxGeometry x="170" y="-240" width="130" height="30" as="geometry"/>
                </mxCell>
                <mxCell id="81" value="NETCONF - RPC Reply" style="text;html=1;strokeColor=none;fillColor=none;align=center;verticalAlign=middle;whiteSpace=wrap;rounded=0;fontColor=#050505;" parent="1" vertex="1">
                    <mxGeometry x="230" y="-210" width="177" height="30" as="geometry"/>
                </mxCell>
                <mxCell id="95" style="edgeStyle=none;html=1;exitX=0.75;exitY=1;exitDx=0;exitDy=0;entryX=0.75;entryY=0;entryDx=0;entryDy=0;" parent="1" source="83" target="93" edge="1">
                    <mxGeometry relative="1" as="geometry"/>
                </mxCell>
                <mxCell id="83" value="InfluxDB&lt;div&gt;(Database)&lt;/div&gt;" style="whiteSpace=wrap;html=1;aspect=fixed;strokeColor=#1F1F1F;fillColor=#FFFFFF;" parent="1" vertex="1">
                    <mxGeometry x="707" y="-300" width="120" height="120" as="geometry"/>
                </mxCell>
                <mxCell id="85" value="POST - Line Protocol" style="text;html=1;strokeColor=none;fillColor=none;align=center;verticalAlign=middle;whiteSpace=wrap;rounded=0;fontColor=#050505;" parent="1" vertex="1">
                    <mxGeometry x="580" y="-270" width="130" height="30" as="geometry"/>
                </mxCell>
                <mxCell id="89" value="GET&lt;div&gt;REQUEST&lt;/div&gt;" style="text;html=1;strokeColor=none;fillColor=none;align=center;verticalAlign=middle;whiteSpace=wrap;rounded=0;fontColor=#050505;" parent="1" vertex="1">
                    <mxGeometry x="660" y="-167" width="70" height="30" as="geometry"/>
                </mxCell>
                <mxCell id="90" value="GET&lt;div&gt;RESPONSE&lt;/div&gt;" style="text;html=1;strokeColor=none;fillColor=none;align=center;verticalAlign=middle;whiteSpace=wrap;rounded=0;fontColor=#050505;" parent="1" vertex="1">
                    <mxGeometry x="810" y="-167" width="70" height="30" as="geometry"/>
                </mxCell>
                <mxCell id="104" style="edgeStyle=none;html=1;exitX=0.5;exitY=1;exitDx=0;exitDy=0;entryX=0.5;entryY=0;entryDx=0;entryDy=0;" parent="1" source="91" target="28" edge="1">
                    <mxGeometry relative="1" as="geometry"/>
                </mxCell>
                <mxCell id="91" value="FastAPI&lt;div&gt;(API)&amp;nbsp;&lt;/div&gt;" style="whiteSpace=wrap;html=1;aspect=fixed;strokeColor=#1F1F1F;fillColor=#FFFFFF;" parent="1" vertex="1">
                    <mxGeometry x="707" y="50" width="120" height="120" as="geometry"/>
                </mxCell>
                <mxCell id="94" style="edgeStyle=none;html=1;exitX=0.25;exitY=0;exitDx=0;exitDy=0;entryX=0.25;entryY=1;entryDx=0;entryDy=0;" parent="1" source="93" target="83" edge="1">
                    <mxGeometry relative="1" as="geometry"/>
                </mxCell>
                <mxCell id="96" style="edgeStyle=none;html=1;exitX=0.5;exitY=1;exitDx=0;exitDy=0;" parent="1" source="93" target="91" edge="1">
                    <mxGeometry relative="1" as="geometry"/>
                </mxCell>
                <mxCell id="93" value="Grafana&lt;div&gt;(Dashboard and alerting)&lt;/div&gt;" style="whiteSpace=wrap;html=1;aspect=fixed;strokeColor=#1F1F1F;fillColor=#FFFFFF;" parent="1" vertex="1">
                    <mxGeometry x="707" y="-130" width="120" height="120" as="geometry"/>
                </mxCell>
                <mxCell id="100" value="ALERT TRIGGERED" style="text;html=1;strokeColor=none;fillColor=none;align=center;verticalAlign=middle;whiteSpace=wrap;rounded=0;fontColor=#050505;" parent="1" vertex="1">
                    <mxGeometry x="770" y="10" width="130" height="30" as="geometry"/>
                </mxCell>
                <mxCell id="101" value="API TRIGGERS LLM TO START PROCESS" style="text;html=1;align=center;verticalAlign=middle;whiteSpace=wrap;rounded=0;" parent="1" vertex="1">
                    <mxGeometry x="780" y="190" width="250" height="30" as="geometry"/>
                </mxCell>
                <mxCell id="103" value="&lt;h1 style=&quot;margin-top: 0px;&quot;&gt;&lt;br&gt;&lt;/h1&gt;" style="text;html=1;whiteSpace=wrap;overflow=hidden;rounded=0;" parent="1" vertex="1">
                    <mxGeometry x="890" y="-120" width="330" height="90" as="geometry"/>
                </mxCell>
                <mxCell id="105" value="POST REQUEST" style="text;html=1;strokeColor=none;fillColor=none;align=center;verticalAlign=middle;whiteSpace=wrap;rounded=0;fontColor=#050505;" parent="1" vertex="1">
                    <mxGeometry x="827" y="230" width="150" height="30" as="geometry"/>
                </mxCell>
                <mxCell id="106" value="POST RESPONSE" style="text;html=1;strokeColor=none;fillColor=none;align=center;verticalAlign=middle;whiteSpace=wrap;rounded=0;fontColor=#050505;" parent="1" vertex="1">
                    <mxGeometry x="827" y="290" width="150" height="30" as="geometry"/>
                </mxCell>
            </root>
        </mxGraphModel>
    </diagram>
</mxfile>